<?xml version="1.0" encoding="utf-8"?>
<svg viewBox="292.404 108.943 51.386 22.891" width="35" height="35" xmlns="http://www.w3.org/2000/svg">
  <g id="g-1" transform="matrix(3.964959, 0, 0, 3.964959, -558.139526, -1581.300781)" style="">
    <g id="g2644" transform="matrix(0.25, 0, 0, 0.25, 211.838318, 400.075012)">
      <path id="path7229" d="M 36.425204,104.88119 C 25.756184,104.88119 17.112704,110.07537 17.112704,116.44369 C 17.112704,122.81202 25.756194,127.97497 36.425204,127.97494 C 47.094224,127.97494 55.768944,122.81202 55.768954,116.44369 C 55.768954,110.07536 47.094224,104.88117 36.425204,104.88119 z M 31.706454,106.97494 C 34.480794,106.93885 37.898804,108.02436 41.112704,110.19369 C 46.826304,114.05026 49.692844,119.85839 47.518954,123.13119 C 45.345074,126.40401 38.951304,125.92527 33.237704,122.06869 C 27.524114,118.21212 24.657564,112.40399 26.831454,109.13119 C 27.782534,107.69933 29.548634,107.00301 31.706454,106.97494 z" style="fill:#000000;fill-opacity:1;fill-rule:nonzero;stroke:none;stroke-width:3.5999999;stroke-linecap:round;stroke-linejoin:miter;stroke-miterlimit:4;stroke-dasharray:none;stroke-opacity:1"/>
    </g>
    <path id="path2561" d="M 214.515 429.174 C 227.475 429.174 227.475 429.174 227.475 429.174" style="fill:none;fill-rule:evenodd;stroke:#000000;stroke-width:1px;stroke-linecap:butt;stroke-linejoin:miter;stroke-opacity:1"/>
  </g>
</svg>